<svg width="2000" height="2000" viewBox="0 0 2000 2000" fill="none" xmlns="http://www.w3.org/2000/svg">
<g clip-path="url(#clip0_201_6)">
<rect width="2000" height="2000" rx="360" fill="#4E82FC"/>
<circle cx="1618" cy="1502" r="1618" fill="url(#paint0_radial_201_6)"/>
<circle cx="1763" r="1618" fill="url(#paint1_radial_201_6)"/>
<circle cx="368" cy="142" r="1618" fill="url(#paint2_radial_201_6)"/>
<path d="M656.693 618.309H783.932L1070.49 1382.81H942.179L879.094 1198.9H559.393L496.308 1382.81H372.277L656.693 618.309ZM845.948 1099.46L720.847 727.371H718.709L594.678 1099.46H845.948ZM1270.9 1397.78C1216.01 1397.78 1172.53 1383.52 1140.46 1355.01C1108.38 1326.5 1092.34 1288.72 1092.34 1241.67C1092.34 1202.47 1101.61 1171.1 1120.14 1147.58C1138.67 1123.34 1163.98 1104.81 1196.06 1091.98C1228.13 1078.44 1269.48 1067.03 1320.09 1057.76C1328.64 1055.63 1337.91 1053.84 1347.89 1052.42C1374.97 1046.72 1395.65 1041.37 1409.9 1036.38C1424.87 1031.39 1436.63 1024.26 1445.19 1015C1453.74 1005.73 1458.02 993.254 1458.02 977.572C1458.02 955.474 1449.82 938.01 1433.43 925.179C1417.74 911.636 1391.37 904.864 1354.3 904.864C1322.94 904.864 1297.99 908.428 1279.46 915.556C1261.63 921.972 1248.45 932.664 1239.89 947.633C1232.05 962.603 1227.06 982.562 1224.92 1007.51H1118C1120.85 951.197 1141.88 905.933 1181.09 871.718C1220.29 837.502 1279.46 820.394 1358.58 820.394C1419.88 820.394 1468.71 835.364 1505.06 865.302C1542.13 894.528 1560.66 942.287 1560.66 1008.58V1258.78C1560.66 1279.45 1562.45 1294.78 1566.01 1304.76C1570.29 1314.02 1577.06 1318.66 1586.33 1318.66C1590.6 1317.94 1594.88 1317.59 1599.16 1317.59V1381.74C1579.2 1386.02 1561.38 1388.16 1545.69 1388.16C1518.61 1388.16 1498.29 1382.1 1484.75 1369.98C1471.2 1357.15 1462.65 1335.77 1459.09 1305.83H1456.95C1438.41 1335.05 1413.47 1357.86 1382.1 1374.26C1350.74 1389.94 1313.67 1397.78 1270.9 1397.78ZM1294.42 1313.31C1325.79 1313.31 1353.95 1307.97 1378.89 1297.27C1403.84 1286.58 1423.09 1270.54 1436.63 1249.16C1450.89 1227.06 1458.02 1200.69 1458.02 1170.03V1091.98C1450.18 1099.11 1435.56 1105.88 1414.18 1112.3C1393.51 1118.71 1368.2 1125.13 1338.26 1131.54C1304.76 1137.96 1278.03 1145.8 1258.07 1155.06C1238.82 1163.62 1224.57 1174.31 1215.3 1187.14C1206.03 1199.97 1201.4 1215.65 1201.4 1234.19C1201.4 1260.56 1208.89 1280.52 1223.86 1294.07C1238.82 1306.9 1262.35 1313.31 1294.42 1313.31Z" fill="white"/>
</g>
<defs>
<radialGradient id="paint0_radial_201_6" cx="0" cy="0" r="1" gradientUnits="userSpaceOnUse" gradientTransform="translate(1618 1502) rotate(90) scale(1618)">
<stop stop-color="#C0DFFC"/>
<stop offset="1" stop-color="#BFDDFC" stop-opacity="0"/>
</radialGradient>
<radialGradient id="paint1_radial_201_6" cx="0" cy="0" r="1" gradientUnits="userSpaceOnUse" gradientTransform="translate(1763) rotate(90) scale(1618)">
<stop stop-color="#A5B6F5"/>
<stop offset="1" stop-color="#A5B6F5" stop-opacity="0"/>
</radialGradient>
<radialGradient id="paint2_radial_201_6" cx="0" cy="0" r="1" gradientUnits="userSpaceOnUse" gradientTransform="translate(368 142) rotate(90) scale(1618)">
<stop stop-color="#FC9ACF"/>
<stop offset="1" stop-color="#FC9ACF" stop-opacity="0"/>
</radialGradient>
<clipPath id="clip0_201_6">
<rect width="2000" height="2000" rx="360" fill="white"/>
</clipPath>
</defs>
</svg>
